<svg xmlns="http://www.w3.org/2000/svg" xmlns:xlink="http://www.w3.org/1999/xlink" id="Layer_1" width="268.706" height="284.647" x="0" y="0" enable-background="new 0 0 268.706 284.647" version="1.1" viewBox="0 0 268.706 284.647" xml:space="preserve"><path fill="#B3B3B3" d="M133.924,0L0,47.131l21.162,175.462l112.902,62.055l113.486-62.896l21.155-175.455L133.924,0z M133.924,0"/><path fill="#ECA523" d="M255.348,56.437L133.61,14.924V269.82l102.021-56.461L255.348,56.437z M255.348,56.437"/><path fill="#FDB71E" d="M15.028,57.186l18.134,156.923l100.447,55.713V14.918L15.028,57.186z M15.028,57.186"/><g><rect width="17.873" height="25.632" x="133.627" y="64.178" fill="#BBBABA"/><rect width="84.458" height="25.632" x="49.126" y="64.178" fill="#F3F3F3"/></g><g><rect width="62.873" height="25.632" x="70.696" y="184.619" fill="#F3F3F3"/><rect width="67.873" height="25.632" x="133.604" y="184.619" fill="#BBBABA"/></g><g><g><rect width="23.207" height="26.632" x="110.403" y="143.972" fill="#F3F3F3"/></g><g><rect width="31.291" height="26.632" x="133.654" y="143.972" fill="#BBBABA"/></g></g><g><g><rect width="44.192" height="25.632" x="89.421" y="104.325" fill="#F3F3F3"/></g><g><rect width="88.067" height="25.632" x="133.608" y="104.325" fill="#BBBABA"/></g></g></svg>